:SAMPLES-PER-SECOND 30
:FULLY-SPECIFIED
:DEGREES
678
root  70.8051 38.9768 15.5053 177.6 15.2353 175.313
RightUpLeg  -8.73023 -18.5004 -7.6734
RightLeg  16.5415 -20.7687 -0.0683343
RightFoot  -5.32512 0.0668574 -1.97126
RightToes  3.49245e-010 0 -3.6325e-017
Spine  17.2008 -2.36738 5.27618
Spine1  5.10097 -2.07519 0.755406
HEad  -17.3856 29.0783 -37.3218
LeftShoulder1  1.04576 -0.405047 -20.3151
LeftArm  -9.72636 -9.83268 -46.4622
LeftForeArm  11.5872 -68.1869 -28.9504
LeftHand  -0.0921992 0.60848 2.15284
RightShoulder  -0.139971 -3.98992 20.9258
RightArm  -14.9504 -1.13551 33.9805
RightForeArm  72.85 77.999 106.384
RightHand  -0.0381135 0.226675 -0.768639
LeftUpLeg  -15.2328 22.3338 -1.07144
LeftLeg  17.3737 3.10698 1.45466
LeftFoot  0.129518 0.0797314 -0.79705
LeftToes  -2.21735e-009 9.83027e-011 -4.04511e-011
679
root  71.0269 39.0991 15.4538 177.223 10.3696 175.93
RightUpLeg  -5.65706 -17.01 -8.05961
RightLeg  14.4479 -26.5504 0.122989
RightFoot  -4.94251 -0.0106683 -0.402059
RightToes  3.49245e-010 0 -3.6325e-017
Spine  17.5244 -2.27451 5.15866
Spine1  4.78651 -1.87191 0.568276
HEad  -16.2317 26.5905 -35.8102
LeftShoulder1  0.953633 0.0291351 -21.0088
LeftArm  -9.35911 -7.49343 -45.3023
LeftForeArm  13.5554 -69.8982 -32.0311
LeftHand  -0.0733085 1.65841 2.19052
RightShoulder  -0.2169 -4.23882 22.0443
RightArm  -14.0482 -2.77914 34.194
RightForeArm  75.1444 77.8123 108.982
RightHand  -0.118869 1.21049 -2.23226
LeftUpLeg  -13.2886 28.01 -0.717451
LeftLeg  15.0315 4.29342 1.37724
LeftFoot  -0.443577 0.0106939 -0.0849357
LeftToes  -2.21735e-009 9.83027e-011 -4.04511e-011
680
root  71.1427 39.2173 15.3273 177.012 3.56369 176.583
RightUpLeg  -2.40137 -16.8296 -8.76809
RightLeg  12.4346 -33.2722 0.888023
RightFoot  -4.36458 0.00845685 -0.619572
RightToes  3.49245e-010 0 -3.6325e-017
Spine  17.3427 -2.94706 5.06407
Spine1  4.69079 -2.62849 0.830556
HEad  -14.8028 24.171 -34.4423
LeftShoulder1  0.87503 0.290502 -20.8285
LeftArm  -9.54659 -5.82454 -45.4244
LeftForeArm  16.5515 -70.7209 -33.4507
LeftHand  -0.120703 2.69186 4.45201
RightShoulder  -0.293539 -4.48821 22.6519
RightArm  -13.7941 -4.75075 34.6766
RightForeArm  80.6017 77.5551 112.948
RightHand  -0.0584844 0.928535 -1.17035
LeftUpLeg  -11.8004 28.3666 -0.038441
LeftLeg  13.3925 10.6921 1.56877
LeftFoot  -0.841297 -0.123081 1.40336
LeftToes  -2.21735e-009 9.83027e-011 -4.04511e-011
681
root  71.2513 39.2709 15.122 177.07 -2.72769 177.29
RightUpLeg  -0.129231 -16.296 -8.77686
RightLeg  11.2684 -39.7692 1.26257
RightFoot  -4.10827 0.0252811 -0.846815
RightToes  3.49245e-010 0 -3.6325e-017
Spine  16.4055 -3.31735 4.55436
Spine1  5.07865 -3.37481 1.97778
HEad  -13.7461 22.2739 -33.7936
LeftShoulder1  0.688065 1.07482 -21.8854
LeftArm  -9.38662 -5.03639 -44.7008
LeftForeArm  18.151 -71.1799 -34.3187
LeftHand  -0.189939 0.584963 4.8122
RightShoulder  -0.180906 -4.11563 22.0498
RightArm  -13.8329 -6.68886 35.8973
RightForeArm  83.611 77.4304 114.782
RightHand  -0.0424478 0.633764 -0.887832
LeftUpLeg  -10.5064 27.4294 1.08907
LeftLeg  11.9662 18.2459 1.07845
LeftFoot  -1.47349 -0.233835 2.80619
LeftToes  -2.21735e-009 9.83027e-011 -4.04511e-011
682
root  71.3471 39.2905 15.0431 177.252 -7.55276 177.599
RightUpLeg  0.848884 -16.2062 -8.67407
RightLeg  11.1981 -44.3389 0.915319
RightFoot  -4.00749 -0.0416536 0.199377
RightToes  3.49245e-010 0 -3.6325e-017
Spine  16.173 -2.9739 4.2609
Spine1  5.11259 -2.97539 1.67179
HEad  -12.54 18.779 -32.1737
LeftShoulder1  0.441793 1.89674 -21.2099
LeftArm  -8.95739 -4.99193 -45.2772
LeftForeArm  18.6696 -71.4002 -34.8193
LeftHand  -0.139898 -0.576817 3.08125
RightShoulder  -0.236711 -4.28365 22.6218
RightArm  -13.7544 -7.72898 35.9779
RightForeArm  84.4614 77.3112 115.851
RightHand  -0.0735357 1.14173 -1.42689
LeftUpLeg  -9.03119 23.9878 2.3703
LeftLeg  9.7095 28.7154 -0.673971
LeftFoot  -1.66834 -0.299147 3.65133
LeftToes  -2.21735e-009 9.83027e-011 -4.04511e-011
683
root  71.2942 39.3036 14.8272 177.687 -12.5628 177.968
RightUpLeg  2.05143 -16.6744 -8.95385
RightLeg  10.5687 -48.3082 1.61207
RightFoot  -3.80138 -0.0865524 0.891218
RightToes  3.49245e-010 0 -3.6325e-017
Spine  14.8883 -2.43644 4.11419
Spine1  5.81088 -2.41496 1.44272
HEad  -10.947 14.6907 -30.3989
LeftShoulder1  0.712764 0.896808 -20.9291
LeftArm  -9.19157 -4.1824 -45.751
LeftForeArm  20.4163 -72.1427 -36.5898
LeftHand  -0.100937 3.25742 4.48141
RightShoulder  -0.472009 -5.03933 23.8977
RightArm  -13.3268 -8.26493 34.2314
RightForeArm  85.6666 77.1052 117.558
RightHand  -0.083071 0.998318 -1.5965
LeftUpLeg  -7.54168 17.7812 3.26979
LeftLeg  6.52932 40.9693 -2.98489
LeftFoot  -1.52316 -0.38651 4.60296
LeftToes  -2.21735e-009 9.83027e-011 -4.04511e-011
684
root  71.1482 39.313 14.5516 177.465 -17.2319 178.254
RightUpLeg  3.99484 -17.8322 -9.78873
RightLeg  10.3613 -51.3113 2.24675
RightFoot  -3.73318 -0.111842 1.28256
RightToes  3.49245e-010 0 -3.6325e-017
Spine  14.2834 -2.42939 3.9593
Spine1  6.20448 -2.3438 1.12459
HEad  -9.71553 11.955 -29.4234
LeftShoulder1  0.656803 1.24614 -22.7174
LeftArm  -8.92577 -3.64199 -43.9611
LeftForeArm  23.1146 -72.6961 -37.7528
LeftHand  -0.0973782 1.80935 2.87687
RightShoulder  -0.315459 -4.55406 22.993
RightArm  -13.7396 -9.27629 35.2217
RightForeArm  85.9123 77.2949 116.383
RightHand  0.00655423 0.831854 0.028809
LeftUpLeg  -6.24961 13.8087 3.18212
LeftLeg  4.80171 50.2818 -3.80868
LeftFoot  -1.21996 -0.448002 5.14318
LeftToes  -2.21735e-009 9.83027e-011 -4.04511e-011
685
root  71.0109 39.2911 14.254 177.483 -21.3824 178.769
RightUpLeg  5.33432 -20.0225 -10.2113
RightLeg  10.9294 -52.8232 2.11363
RightFoot  -3.84 -0.144702 1.80575
RightToes  3.49245e-010 0 -3.6325e-017
Spine  13.671 -1.99495 3.45396
Spine1  6.3111 -1.94484 1.09599
HEad  -8.28183 9.22388 -27.7208
LeftShoulder1  0.608126 1.42909 -23.1358
LeftArm  -8.62107 -3.06047 -43.6459
LeftForeArm  24.4793 -73.0783 -38.7426
LeftHand  -0.0927318 1.03646 2.31981
RightShoulder  -0.279612 -4.42986 22.7902
RightArm  -13.5015 -9.83124 34.8689
RightForeArm  85.3806 77.3318 115.982
RightHand  0.00987242 0.844025 0.106045
LeftUpLeg  -6.0275 12.7834 3.1406
LeftLeg  4.67519 51.3241 -3.72564
LeftFoot  -0.877101 -0.505125 5.55602
LeftToes  -2.21735e-009 9.83027e-011 -4.04511e-011
686
root  70.7391 39.2377 13.9248 177.658 -25.1749 178.497
RightUpLeg  6.69922 -27.9201 -12.6464
RightLeg  13.6917 -48.003 0.131781
RightFoot  -4.33209 -0.167125 2.26932
RightToes  3.49245e-010 0 -3.6325e-017
Spine  12.7377 -1.23969 1.27708
Spine1  6.97583 -1.85306 2.95339
HEad  -7.39475 6.91182 -27.639
LeftShoulder1  0.454288 2.08182 -25.6209
LeftArm  -8.07545 -2.73395 -42.2275
LeftForeArm  25.5976 -73.5476 -40.2121
LeftHand  -0.0474226 1.13451 1.14036
RightShoulder  -0.121136 -3.92263 21.0305
RightArm  -13.9263 -10.6425 35.7883
RightForeArm  86.0213 77.2893 116.452
RightHand  -0.0217547 1.07824 -0.501952
LeftUpLeg  -6.50853 12.4624 2.07653
LeftLeg  5.90032 46.9869 -2.96456
LeftFoot  -0.493596 -0.66704 7.05406
LeftToes  -2.21735e-009 9.83027e-011 -4.04511e-011
687
root  70.4294 39.1225 13.5868 177.913 -29.7648 178.277
RightUpLeg  8.85012 -41.718 -16.6591
RightLeg  16.9284 -36.7493 -3.06497
RightFoot  -5.13709 -0.197753 2.99633
RightToes  3.49245e-010 0 -3.6325e-017
Spine  12.3698 -1.30756 0.414075
Spine1  6.55526 -1.85882 2.39823
HEad  -6.2421 4.91619 -26.6138
LeftShoulder1  0.446851 2.07832 -25.1624
LeftArm  -8.23431 -0.914251 -42.4023
LeftForeArm  27.4529 -74.0997 -41.9569
LeftHand  -0.0797625 0.650243 1.90669
RightShoulder  -0.172042 -4.08703 21.6842
RightArm  -13.3566 -10.9579 35.3381
RightForeArm  86.8189 77.2441 116.967
RightHand  -0.00839591 0.705156 -0.225943
LeftUpLeg  -7.82528 13.4931 0.629987
LeftLeg  9.21371 41.5568 -0.417447
LeftFoot  -0.924045 -0.676732 7.47643
LeftToes  -2.21735e-009 9.83027e-011 -4.04511e-011
688
root  70.0294 38.9914 13.1856 177.584 -34.0516 178.071
RightUpLeg  12.2737 -52.9087 -21.6959
RightLeg  19.5593 -23.2415 -6.34325
RightFoot  -4.81405 -0.182722 2.62627
RightToes  3.49245e-010 0 -3.6325e-017
Spine  11.19 -0.90345 -0.276145
Spine1  7.68253 -1.42247 2.02741
HEad  -4.72367 2.26122 -26.0544
LeftShoulder1  0.571234 1.65399 -24.6229
LeftArm  -8.27588 0.0693287 -43.1242
LeftForeArm  28.1824 -74.2187 -42.2855
LeftHand  -0.0734848 0.294575 1.61788
RightShoulder  -0.326832 -4.61672 22.323
RightArm  -13.5772 -11.5269 34.7528
RightForeArm  89.8124 76.9917 119.361
RightHand  0.0131774 0.469915 0.21049
LeftUpLeg  -7.99552 15.9306 -0.573974
LeftLeg  11.5796 35.0642 1.00498
LeftFoot  -1.87327 -0.634264 7.77354
LeftToes  -2.21735e-009 9.83027e-011 -4.04511e-011
